HIERARCHY
ROOT Hips
{
 OFFSET 0.000000 0.000000 0.000000
 CHANNELS 6 Xposition Yposition Zposition Yrotation Xrotation Zrotation
 JOINT Chest
 {
  OFFSET 0.000000 9.585900 0.002600
  CHANNELS 3 Yrotation Xrotation Zrotation
  JOINT Chest2
  {
   OFFSET 0.000000 9.601200 -0.005300
   CHANNELS 3 Yrotation Xrotation Zrotation
   JOINT Chest3
   {
    OFFSET 0.000000 9.561800 0.000000
    CHANNELS 3 Yrotation Xrotation Zrotation
    JOINT Chest4
    {
     OFFSET 0.000000 9.552100 0.000000
     CHANNELS 3 Yrotation Xrotation Zrotation
     JOINT Neck
     {
      OFFSET 0.000000 14.453000 0.000000
      CHANNELS 3 Yrotation Xrotation Zrotation
      JOINT Head
      {
       OFFSET 0.000000 8.936500 -0.011300
       CHANNELS 3 Yrotation Xrotation Zrotation
       End Site
       {
        OFFSET 0.000000 17.073600 -0.006000
       }
      }
     }
     JOINT RightCollar
     {
      OFFSET -2.921100 9.558500 0.000000
      CHANNELS 3 Yrotation Xrotation Zrotation
      JOINT RightShoulder
      {
       OFFSET -13.519700 0.000000 0.000000
       CHANNELS 3 Yrotation Xrotation Zrotation
       JOINT RightElbow
       {
        OFFSET 0.000000 -29.696600 0.000000
        CHANNELS 3 Yrotation Xrotation Zrotation
        JOINT RightWrist
        {
         OFFSET 0.000000 -24.004700 0.000000
         CHANNELS 3 Yrotation Xrotation Zrotation
         End Site
         {
          OFFSET 0.000000 -17.728500 0.000000
         }
        }
       }
      }
     }
     JOINT LeftCollar
     {
      OFFSET 2.921100 9.558500 0.000000
      CHANNELS 3 Yrotation Xrotation Zrotation
      JOINT LeftShoulder
      {
       OFFSET 13.519700 0.000000 0.000000
       CHANNELS 3 Yrotation Xrotation Zrotation
       JOINT LeftElbow
       {
        OFFSET 0.000000 -29.696600 0.000000
        CHANNELS 3 Yrotation Xrotation Zrotation
        JOINT LeftWrist
        {
         OFFSET 0.000000 -24.004700 0.000000
         CHANNELS 3 Yrotation Xrotation Zrotation
         End Site
         {
          OFFSET 0.000000 -17.728500 0.000000
         }
        }
       }
      }
     }
    }
   }
  }
 }
 JOINT RightHip
 {
  OFFSET -7.771700 -0.012900 -0.001300
  CHANNELS 3 Yrotation Xrotation Zrotation
  JOINT RightKnee
  {
   OFFSET 0.000000 -40.869800 0.001200
   CHANNELS 3 Yrotation Xrotation Zrotation
   JOINT RightAnkle
   {
    OFFSET 0.000000 -39.717900 0.002100
    CHANNELS 3 Yrotation Xrotation Zrotation
    JOINT RightToe
    {
     OFFSET 0.000000 -4.965400 11.033500
     CHANNELS 3 Yrotation Xrotation Zrotation
     End Site
     {
      OFFSET 0.000000 -1.423100 5.872300
     }
    }
   }
  }
 }
 JOINT LeftHip
 {
  OFFSET 7.771700 -0.012900 -0.001300
  CHANNELS 3 Yrotation Xrotation Zrotation
  JOINT LeftKnee
  {
   OFFSET 0.000000 -40.869800 0.001200
   CHANNELS 3 Yrotation Xrotation Zrotation
   JOINT LeftAnkle
   {
    OFFSET 0.000000 -39.717900 0.002100
    CHANNELS 3 Yrotation Xrotation Zrotation
    JOINT LeftToe
    {
     OFFSET 0.000000 -4.965400 11.033500
     CHANNELS 3 Yrotation Xrotation Zrotation
     End Site
     {
      OFFSET 0.000000 -1.423100 5.872300
     }
    }
   }
  }
 }
}
MOTION
Frames: 5
Frame Time: 0.008333
-17.142624 57.889219 68.597399 -175.932772 -41.728179 -3.485732 -0.127368 27.256921 4.401143 -0.131310 4.830990 0.566729 -0.183830 7.630983 0.892376 -0.191661 22.296757 2.634414 -0.283036 10.210119 -2.881452 0.761449 -16.802850 -5.438927 3.097241 -1.388836 -2.035897 8.759221 -14.576539 -16.110330 158.979685 -70.268326 -137.448843 20.651423 -17.195998 -46.241799 -7.258909 -1.676335 -3.191288 6.775021 -9.040320 -3.994763 -154.724014 -67.531665 133.739207 -7.214017 -15.603585 31.753299 3.676561 -28.433916 -4.947609 -6.329880 65.568650 -8.937601 3.954465 6.239685 8.307723 -0.441706 0.638248 -0.192514 -9.963132 -35.221462 -0.547797 26.542199 57.769582 19.447340 -10.431495 38.789791 6.582648 0.474976 -18.099763 -6.015676
-17.141033 57.888557 68.595240 -175.936897 -41.737398 -3.478132 -0.121927 27.266945 4.396354 -0.132227 4.831497 0.568520 -0.179776 7.640814 0.886277 -0.200133 22.302012 2.625132 -0.281375 10.179455 -2.879672 0.759623 -16.835076 -5.456321 3.108361 -1.391643 -2.036042 8.769861 -14.606947 -16.124774 158.992903 -70.287183 -137.480741 20.694020 -17.199319 -46.276308 -7.259257 -1.686118 -3.181157 6.782345 -9.045355 -3.995153 -154.795801 -67.511991 133.838152 -7.229968 -15.597156 31.764751 3.683722 -28.426178 -4.953680 -6.328198 65.573339 -8.934871 3.955789 6.238308 8.310659 -0.445537 0.636771 -0.196647 -9.928764 -35.210879 -0.562506 26.507796 57.773999 19.428884 -10.429023 38.780524 6.582902 0.476689 -18.085385 -6.012991
-17.139070 57.888321 68.593379 -175.935769 -41.745452 -3.477788 -0.121570 27.275242 4.394799 -0.121855 4.841327 0.563242 -0.184387 7.640541 0.889680 -0.202627 22.306491 2.622784 -0.287151 10.150218 -2.885649 0.759371 -16.868866 -5.474444 3.107054 -1.371117 -2.050627 8.767591 -14.646689 -16.111271 158.960053 -70.267531 -137.470170 20.674453 -17.198140 -46.260007 -7.262320 -1.696001 -3.184563 6.782400 -9.046320 -3.990521 -154.823369 -67.500022 133.873749 -7.235288 -15.589772 31.759723 3.685518 -28.418204 -4.955271 -6.320304 65.576831 -8.923423 3.948161 6.237048 8.306108 -0.443015 0.636865 -0.196538 -9.893447 -35.200799 -0.579044 26.469708 57.775464 19.415601 -10.427309 38.777033 6.583683 0.486558 -18.069884 -6.015878
-17.138349 57.888492 68.591791 -175.927759 -41.752828 -3.476478 -0.121080 27.286906 4.391135 -0.123219 4.842200 0.560842 -0.183519 7.646356 0.887897 -0.203599 22.311129 2.621514 -0.303803 10.086162 -2.929530 0.746919 -17.014400 -5.547727 3.100440 -1.367432 -2.053246 8.769529 -14.673889 -16.106687 158.877612 -70.244304 -137.421072 20.634584 -17.205194 -46.232942 -7.285580 -1.688919 -3.196233 6.797898 -9.067829 -3.979800 -154.829504 -67.490872 133.885984 -7.238513 -15.590088 31.757320 3.684289 -28.411384 -4.960252 -6.307614 65.583308 -8.913776 3.937212 6.238030 8.305277 -0.440059 0.632917 -0.196153 -9.854144 -35.191437 -0.606201 26.433959 57.771698 19.405868 -10.419481 38.783043 6.588463 0.480787 -18.071548 -6.011600
-17.137630 57.889630 68.589802 -175.929546 -41.765492 -3.470993 -0.102048 27.307005 4.382960 -0.131867 4.839882 0.566460 -0.183263 7.649716 0.887866 -0.202838 22.315132 2.620745 -0.306764 10.064703 -2.926797 0.737410 -17.159361 -5.640338 3.095085 -1.371403 -2.049177 8.773374 -14.687575 -16.104510 158.851526 -70.240431 -137.407638 20.647657 -17.202304 -46.240744 -7.293447 -1.690663 -3.199317 6.799880 -9.079325 -3.970843 -154.825340 -67.487351 133.883880 -7.232373 -15.599635 31.763066 3.691363 -28.399604 -4.963798 -6.310588 65.588641 -8.916758 3.936465 6.238320 8.303349 -0.441132 0.628928 -0.193696 -9.807842 -35.176927 -0.632667 26.420335 57.768423 19.415747 -10.416973 38.781019 6.596292 0.469307 -18.067187 -6.006281
